<svg width="150" height="32" viewBox="0 0 150 32" fill="none" xmlns="http://www.w3.org/2000/svg">
<path d="M51.3086 24.0488C51.1784 24.0163 50.9701 24 50.6836 24H47.5684C46.9434 24 46.543 23.8893 46.3672 23.668C46.2956 23.5833 46.2598 23.4857 46.2598 23.375C46.2598 23.1016 46.3118 22.8997 46.416 22.7695C46.5723 22.8216 46.748 22.8477 46.9434 22.8477C47.1452 22.8477 47.2949 22.7663 47.3926 22.6035C47.4967 22.4408 47.5456 22.138 47.5391 21.6953V15.3086C47.5391 14.6966 47.4251 14.3158 47.1973 14.166C47.1061 14.1074 46.9857 14.0781 46.8359 14.0781C46.6862 14.0781 46.5658 14.1009 46.4746 14.1465C46.39 14.1921 46.3184 14.2246 46.2598 14.2441C46.2077 14.2637 46.1621 14.2637 46.123 14.2441C46.084 14.2181 46.0449 14.1823 46.0059 14.1367C45.9082 14.0326 45.8594 13.9251 45.8594 13.8145C45.8594 13.6973 45.8984 13.5768 45.9766 13.4531C46.0612 13.3229 46.1947 13.1764 46.377 13.0137C46.5592 12.8444 46.7676 12.6914 47.002 12.5547C47.5293 12.2487 48.0566 12.0957 48.584 12.0957C49.1634 12.0957 49.5117 12.4635 49.6289 13.1992C49.668 13.4206 49.694 13.6484 49.707 13.8828C50.6836 13.1081 51.7057 12.5677 52.7734 12.2617C53.1641 12.151 53.5417 12.0957 53.9062 12.0957C55.4557 12.0957 56.4355 12.7077 56.8457 13.9316C57.8613 13.1243 58.8932 12.5677 59.9414 12.2617C60.3385 12.151 60.7422 12.0957 61.1523 12.0957C61.5625 12.0957 61.9564 12.151 62.334 12.2617C62.7181 12.3724 63.0469 12.5514 63.3203 12.7988C63.9193 13.3327 64.2188 14.1465 64.2188 15.2402V21.793C64.2188 22.3268 64.401 22.6589 64.7656 22.7891C64.8698 22.8281 64.9935 22.8607 65.1367 22.8867C65.2799 22.9128 65.4102 22.9453 65.5273 22.9844C65.6445 23.0169 65.7357 23.056 65.8008 23.1016C65.9115 23.1862 65.9668 23.3229 65.9668 23.5117C65.9668 23.7396 65.9147 23.9186 65.8105 24.0488C65.6803 24.0163 65.472 24 65.1855 24H62.0703C61.4453 24 61.0449 23.8893 60.8691 23.668C60.7975 23.5833 60.7617 23.4857 60.7617 23.375C60.7617 23.1016 60.8138 22.8997 60.918 22.7695C61.0742 22.8216 61.2467 22.8477 61.4355 22.8477C61.6243 22.8477 61.7676 22.7858 61.8652 22.6621C61.9694 22.5319 62.028 22.2943 62.041 21.9492V15.9336C62.041 14.8268 61.7122 14.2083 61.0547 14.0781C60.8529 14.0391 60.612 14.0195 60.332 14.0195C60.0586 14.0195 59.7591 14.0553 59.4336 14.127C59.1146 14.1921 58.8086 14.2832 58.5156 14.4004C57.9492 14.6283 57.4544 14.918 57.0312 15.2695V21.793C57.0312 22.3333 57.2135 22.6654 57.5781 22.7891C57.6823 22.8281 57.806 22.8607 57.9492 22.8867C58.0924 22.9128 58.2194 22.9453 58.3301 22.9844C58.4473 23.0169 58.5384 23.056 58.6035 23.1016C58.7142 23.1862 58.7695 23.3229 58.7695 23.5117C58.7695 23.7461 58.7207 23.9251 58.623 24.0488C58.4928 24.0163 58.2845 24 57.998 24H54.8828C54.2578 24 53.8574 23.8893 53.6816 23.668C53.61 23.5833 53.5742 23.4857 53.5742 23.375C53.5742 23.0951 53.623 22.8932 53.7207 22.7695C53.8835 22.8216 54.0592 22.8477 54.248 22.8477C54.4368 22.8477 54.5801 22.7793 54.6777 22.6426C54.7819 22.5059 54.8405 22.2552 54.8535 21.8906V15.9336C54.8535 14.8268 54.5247 14.2083 53.8672 14.0781C53.6654 14.0391 53.4212 14.0195 53.1348 14.0195C52.8483 14.0195 52.5358 14.0586 52.1973 14.1367C51.8587 14.2148 51.5365 14.319 51.2305 14.4492C50.6445 14.6901 50.14 14.9961 49.7168 15.3672V21.793C49.7168 22.3268 49.9023 22.6589 50.2734 22.7891C50.3711 22.8281 50.4915 22.8607 50.6348 22.8867C50.778 22.9128 50.9082 22.9453 51.0254 22.9844C51.1426 23.0169 51.2337 23.056 51.2988 23.1016C51.4095 23.1862 51.4648 23.3229 51.4648 23.5117C51.4648 23.7396 51.4128 23.9186 51.3086 24.0488ZM67.9414 18.7461C67.9414 17.9583 68.0228 17.2585 68.1855 16.6465C68.3483 16.0345 68.5664 15.4876 68.8398 15.0059C69.1198 14.5176 69.4453 14.0911 69.8164 13.7266C70.194 13.362 70.5977 13.0592 71.0273 12.8184C71.8737 12.3366 72.707 12.0957 73.5273 12.0957C74.3477 12.0957 75.0052 12.2422 75.5 12.5352C75.9948 12.8216 76.3984 13.2057 76.7109 13.6875C77.2904 14.6055 77.5801 15.8262 77.5801 17.3496C77.5801 17.916 77.3424 18.2057 76.8672 18.2188L70.0508 18.3652C70.0898 19.778 70.4544 20.8229 71.1445 21.5C71.7305 22.0729 72.4889 22.3594 73.4199 22.3594C74.8066 22.3594 75.9329 22.0697 76.7988 21.4902C76.8574 21.4902 76.929 21.5391 77.0137 21.6367C77.1764 21.832 77.2578 22.0013 77.2578 22.1445C77.2578 22.457 76.8672 22.8574 76.0859 23.3457C75.1875 23.9056 74.1393 24.1855 72.9414 24.1855C71.3789 24.1855 70.1517 23.6875 69.2598 22.6914C68.3809 21.7148 67.9414 20.3997 67.9414 18.7461ZM70.1094 17.1055C71.9844 17.0143 73.6999 16.8939 75.2559 16.7441C75.3275 14.6738 74.6113 13.6387 73.1074 13.6387C72.2676 13.6387 71.5807 13.9642 71.0469 14.6152C70.5586 15.2142 70.2461 16.0443 70.1094 17.1055ZM88.1777 22.7793C87.1686 23.7233 86.0586 24.1953 84.8477 24.1953C83.513 24.1953 82.4258 23.7396 81.5859 22.8281C80.6745 21.8255 80.2188 20.4421 80.2188 18.6777C80.2188 16.6921 80.8503 15.0775 82.1133 13.834C83.2917 12.6751 84.6849 12.0957 86.293 12.0957C86.9375 12.0957 87.556 12.2031 88.1484 12.418V9.5957C88.1484 9.13997 88.1029 8.85026 88.0117 8.72656C87.862 8.51823 87.6178 8.41406 87.2793 8.41406C87.1361 8.41406 86.9928 8.43034 86.8496 8.46289C86.7129 8.48893 86.6152 8.48893 86.5566 8.46289C86.5046 8.43034 86.4622 8.38802 86.4297 8.33594C86.2995 8.12109 86.4622 7.84766 86.918 7.51562C87.6341 6.98828 88.3405 6.72461 89.0371 6.72461C89.7728 6.72461 90.1927 7.125 90.2969 7.92578C90.3229 8.16667 90.3359 8.42057 90.3359 8.6875V20.0254C90.3359 21.028 90.375 21.653 90.4531 21.9004C90.5312 22.1478 90.6224 22.3105 90.7266 22.3887C90.8372 22.4603 90.974 22.4961 91.1367 22.4961C91.2995 22.4961 91.4329 22.4701 91.5371 22.418L91.8301 22.291C91.9147 22.2715 91.9896 22.3105 92.0547 22.4082C92.1914 22.61 92.2109 22.7923 92.1133 22.9551C92.0156 23.1178 91.8691 23.2741 91.6738 23.4238C91.4785 23.5736 91.2604 23.7038 91.0195 23.8145C89.9648 24.2897 89.1771 24.2995 88.6562 23.8438C88.4023 23.6224 88.2428 23.2676 88.1777 22.7793ZM88.1484 14.4004C87.5104 13.9121 86.7682 13.668 85.9219 13.668C84.9062 13.668 84.0827 14.0423 83.4512 14.791C82.7741 15.5918 82.4355 16.6823 82.4355 18.0625C82.4355 20.2565 83.0605 21.6107 84.3105 22.125C84.7012 22.2812 85.0788 22.3594 85.4434 22.3594C85.8145 22.3594 86.1237 22.3301 86.3711 22.2715C86.6185 22.2129 86.8496 22.1348 87.0645 22.0371C87.4941 21.8418 87.8555 21.6042 88.1484 21.3242V14.4004ZM96.4902 10.2793C96.2689 10.2793 96.0638 10.2467 95.875 10.1816C95.6927 10.11 95.5332 10.0091 95.3965 9.87891C95.11 9.60547 94.9668 9.23763 94.9668 8.77539C94.9668 8.33268 95.1361 7.95833 95.4746 7.65234C95.8001 7.34635 96.1908 7.19336 96.6465 7.19336C97.1022 7.19336 97.4668 7.33008 97.7402 7.60352C98.0137 7.87695 98.1504 8.24805 98.1504 8.7168C98.1504 9.15951 97.9876 9.53385 97.6621 9.83984C97.3431 10.1328 96.9525 10.2793 96.4902 10.2793ZM95.8945 24C94.8919 24 94.3906 23.7721 94.3906 23.3164C94.3906 23.082 94.4427 22.8997 94.5469 22.7695C94.7031 22.8216 94.8464 22.8477 94.9766 22.8477C95.582 22.8477 95.8783 22.4635 95.8652 21.6953V15.1523C95.8652 14.6966 95.8001 14.3809 95.6699 14.2051C95.5462 14.0228 95.3216 13.9316 94.9961 13.9316C94.7552 13.9316 94.5371 13.9609 94.3418 14.0195C94.2246 14.0326 94.14 13.9414 94.0879 13.7461C94.0423 13.5703 94.0684 13.4173 94.166 13.2871C94.2637 13.1504 94.4134 13.0104 94.6152 12.8672C94.8236 12.7174 95.0514 12.5872 95.2988 12.4766C95.8327 12.2227 96.2786 12.0957 96.6367 12.0957C96.9948 12.0957 97.2585 12.1478 97.4277 12.252C97.6035 12.3561 97.737 12.4961 97.8281 12.6719C97.9714 12.9583 98.043 13.4206 98.043 14.0586V21.8613C98.0625 22.3757 98.248 22.6882 98.5996 22.7988C98.6973 22.8314 98.8177 22.8607 98.9609 22.8867C99.1042 22.9128 99.2311 22.9453 99.3418 22.9844C99.459 23.0169 99.5501 23.056 99.6152 23.1016C99.7259 23.1862 99.7812 23.3229 99.7812 23.5117C99.7812 23.7461 99.7324 23.9251 99.6348 24.0488C99.498 24.0163 99.2897 24 99.0098 24H95.8945ZM108.738 15.6602L108.748 15.3086C108.748 15.1849 108.719 14.9766 108.66 14.6836C108.602 14.3841 108.413 14.14 108.094 13.9512C107.781 13.7624 107.381 13.668 106.893 13.668C106.411 13.668 105.981 13.7917 105.604 14.0391C105.232 14.2799 104.93 14.6055 104.695 15.0156C104.253 15.7969 104.031 16.8418 104.031 18.1504C104.031 19.3874 104.331 20.3932 104.93 21.168C105.542 21.9622 106.349 22.3594 107.352 22.3594C108.263 22.3594 109.135 22.1087 109.969 21.6074C110.171 21.4837 110.327 21.3763 110.438 21.2852C110.503 21.2852 110.577 21.3372 110.662 21.4414C110.825 21.6302 110.906 21.7832 110.906 21.9004C110.906 22.0111 110.861 22.1413 110.77 22.291C110.678 22.4342 110.545 22.5905 110.369 22.7598C110.2 22.9225 109.995 23.0885 109.754 23.2578C109.513 23.4271 109.243 23.5801 108.943 23.7168C108.26 24.0293 107.56 24.1855 106.844 24.1855C106.128 24.1855 105.457 24.0651 104.832 23.8242C104.214 23.5768 103.68 23.2155 103.23 22.7402C102.267 21.7311 101.785 20.3444 101.785 18.5801C101.785 16.5749 102.397 14.9635 103.621 13.7461C104.734 12.6458 106.02 12.0957 107.479 12.0957C108.436 12.0957 109.233 12.3008 109.871 12.7109C110.542 13.1406 110.877 13.707 110.877 14.4102C110.877 14.7943 110.792 15.084 110.623 15.2793C110.33 15.6243 109.988 15.7969 109.598 15.7969C109.214 15.7969 108.927 15.7513 108.738 15.6602ZM113.213 18.6094C113.213 17.8151 113.291 17.1022 113.447 16.4707C113.604 15.8392 113.818 15.2826 114.092 14.8008C114.365 14.319 114.688 13.9089 115.059 13.5703C115.43 13.2253 115.827 12.9453 116.25 12.7305C117.077 12.3073 117.985 12.0957 118.975 12.0957C120.244 12.0957 121.322 12.5579 122.207 13.4824C123.19 14.498 123.682 15.8392 123.682 17.5059C123.682 19.6934 123.086 21.3958 121.895 22.6133C120.859 23.6615 119.619 24.1855 118.174 24.1855C116.663 24.1855 115.452 23.6549 114.541 22.5938C113.656 21.5716 113.213 20.2435 113.213 18.6094ZM118.75 22.5938C119.186 22.5938 119.577 22.4928 119.922 22.291C120.267 22.0827 120.56 21.7995 120.801 21.4414C121.283 20.6992 121.523 19.7357 121.523 18.5508C121.523 17.2487 121.27 16.1419 120.762 15.2305C120.189 14.1823 119.365 13.6582 118.291 13.6582C117.425 13.6582 116.732 13.9902 116.211 14.6543C115.658 15.3574 115.381 16.3405 115.381 17.6035C115.381 19.1855 115.729 20.4355 116.426 21.3535C117.051 22.1803 117.826 22.5938 118.75 22.5938ZM131.604 24.0488C131.467 24.0163 131.258 24 130.979 24H127.668C127.043 24 126.643 23.8893 126.467 23.668C126.395 23.5833 126.359 23.4857 126.359 23.375C126.359 23.1016 126.411 22.8997 126.516 22.7695C126.672 22.8216 126.815 22.8477 126.945 22.8477C127.082 22.8477 127.196 22.8314 127.287 22.7988C127.378 22.7598 127.45 22.6979 127.502 22.6133C127.593 22.457 127.639 22.151 127.639 21.6953V15.3086C127.639 14.6966 127.525 14.3158 127.297 14.166C127.206 14.1074 127.085 14.0781 126.936 14.0781C126.786 14.0781 126.665 14.1009 126.574 14.1465C126.49 14.1921 126.418 14.2246 126.359 14.2441C126.307 14.2637 126.262 14.2637 126.223 14.2441C126.184 14.2181 126.145 14.1823 126.105 14.1367C126.008 14.0195 125.959 13.9089 125.959 13.8047C125.959 13.694 125.998 13.5768 126.076 13.4531C126.161 13.3229 126.294 13.1764 126.477 13.0137C126.659 12.8444 126.867 12.6914 127.102 12.5547C127.629 12.2487 128.156 12.0957 128.684 12.0957C129.283 12.0957 129.637 12.4863 129.748 13.2676C129.781 13.4954 129.8 13.7331 129.807 13.9805C130.757 13.1406 131.737 12.5645 132.746 12.252C133.085 12.1478 133.391 12.0957 133.664 12.0957C133.944 12.0957 134.172 12.1348 134.348 12.2129C134.53 12.291 134.673 12.3984 134.777 12.5352C134.973 12.8021 135.07 13.1439 135.07 13.5605C135.07 13.9772 135.051 14.3092 135.012 14.5566C134.973 14.804 134.924 15.0221 134.865 15.2109C134.748 15.5951 134.637 15.8392 134.533 15.9434C134.351 16.1322 134.107 16.2266 133.801 16.2266C133.488 16.2266 133.332 16.1354 133.332 15.9531C133.332 15.2565 133.303 14.8105 133.244 14.6152C133.133 14.2572 132.925 14.0781 132.619 14.0781C132.313 14.0781 132.036 14.1139 131.789 14.1855C131.542 14.2507 131.301 14.3418 131.066 14.459C130.591 14.6934 130.174 14.9961 129.816 15.3672V21.8613C129.836 22.3757 130.061 22.6882 130.49 22.7988C130.614 22.8314 130.754 22.8607 130.91 22.8867C131.066 22.9128 131.2 22.9453 131.311 22.9844C131.428 23.0169 131.519 23.056 131.584 23.1016C131.695 23.1862 131.75 23.3229 131.75 23.5117C131.75 23.7461 131.701 23.9251 131.604 24.0488ZM144.896 22.7793C143.887 23.7233 142.777 24.1953 141.566 24.1953C140.232 24.1953 139.145 23.7396 138.305 22.8281C137.393 21.8255 136.938 20.4421 136.938 18.6777C136.938 16.6921 137.569 15.0775 138.832 13.834C140.01 12.6751 141.404 12.0957 143.012 12.0957C143.656 12.0957 144.275 12.2031 144.867 12.418V9.5957C144.867 9.13997 144.822 8.85026 144.73 8.72656C144.581 8.51823 144.337 8.41406 143.998 8.41406C143.855 8.41406 143.712 8.43034 143.568 8.46289C143.432 8.48893 143.334 8.48893 143.275 8.46289C143.223 8.43034 143.181 8.38802 143.148 8.33594C143.018 8.12109 143.181 7.84766 143.637 7.51562C144.353 6.98828 145.059 6.72461 145.756 6.72461C146.492 6.72461 146.911 7.125 147.016 7.92578C147.042 8.16667 147.055 8.42057 147.055 8.6875V20.0254C147.055 21.028 147.094 21.653 147.172 21.9004C147.25 22.1478 147.341 22.3105 147.445 22.3887C147.556 22.4603 147.693 22.4961 147.855 22.4961C148.018 22.4961 148.152 22.4701 148.256 22.418L148.549 22.291C148.633 22.2715 148.708 22.3105 148.773 22.4082C148.91 22.61 148.93 22.7923 148.832 22.9551C148.734 23.1178 148.588 23.2741 148.393 23.4238C148.197 23.5736 147.979 23.7038 147.738 23.8145C146.684 24.2897 145.896 24.2995 145.375 23.8438C145.121 23.6224 144.962 23.2676 144.896 22.7793ZM144.867 14.4004C144.229 13.9121 143.487 13.668 142.641 13.668C141.625 13.668 140.801 14.0423 140.17 14.791C139.493 15.5918 139.154 16.6823 139.154 18.0625C139.154 20.2565 139.779 21.6107 141.029 22.125C141.42 22.2812 141.798 22.3594 142.162 22.3594C142.533 22.3594 142.842 22.3301 143.09 22.2715C143.337 22.2129 143.568 22.1348 143.783 22.0371C144.213 21.8418 144.574 21.6042 144.867 21.3242V14.4004Z" fill="#06BBCC"/>
<path d="M23.1542 15.1286L19.553 22.2356C19.1187 23.0928 17.8612 23.0656 17.463 22.191L13.3472 13.1643L11.1754 18.2892L4.08573 18.2857L16.8342 31.2998C17.7492 32.2334 19.2451 32.2334 20.1608 31.2998L32.9093 18.2857L24.8078 18.286L23.1542 15.1286ZM33.4744 2.2044C29.5458 -1.15128 23.5373 -0.545572 19.9238 3.13725L18.5 4.58938L17.0763 3.13725C13.4628 -0.545572 7.45714 -1.15128 3.52636 2.2044C-0.624847 5.75008 -1.09677 11.8286 2.03542 16H9.6238L12.2205 9.83933C12.6185 8.91934 13.9304 8.90219 14.3553 9.81254L18.5622 19.0553L22.1085 12.0554C22.5337 11.2161 23.7548 11.2161 24.1805 12.0554L26.1802 16.0018H34.961C38.0997 11.8286 37.6228 5.75008 33.4744 2.2044Z" fill="#06BBCC"/>
</svg>
